{
	"asset":{
		"generator":"Khronos glTF Blender I/O v4.0.44",
		"version":"2.0"
	},
	"scene":0,
	"scenes":[
		{
			"name":"Scene",
			"nodes":[
				0
			]
		}
	],
	"nodes":[
		{
			"mesh":0,
			"name":"R2_1.75u.001",
			"rotation":[
				0.7071068286895752,
				0,
				0,
				0.7071068286895752
			],
			"scale":[
				0.009999999776482582,
				0.009999999776482582,
				0.009999999776482582
			]
		}
	],
	"materials":[
		{
			"doubleSided":true,
			"name":"Material.004",
			"pbrMetallicRoughness":{}
		}
	],
	"meshes":[
		{
			"name":"Mesh.067",
			"primitives":[
				{
					"attributes":{
						"POSITION":0,
						"NORMAL":1,
						"TEXCOORD_0":2
					},
					"indices":3,
					"material":0
				}
			]
		}
	],
	"accessors":[
		{
			"bufferView":0,
			"componentType":5126,
			"count":1926,
			"max":[
				-7.847527503967285,
				0.7904062867164612,
				-9.586661338806152
			],
			"min":[
				-11.08627700805664,
				-8.817461605303833e-08,
				-11.396661758422852
			],
			"type":"VEC3"
		},
		{
			"bufferView":1,
			"componentType":5126,
			"count":1926,
			"type":"VEC3"
		},
		{
			"bufferView":2,
			"componentType":5126,
			"count":1926,
			"type":"VEC2"
		},
		{
			"bufferView":3,
			"componentType":5123,
			"count":6546,
			"type":"SCALAR"
		}
	],
	"bufferViews":[
		{
			"buffer":0,
			"byteLength":23112,
			"byteOffset":0,
			"target":34962
		},
		{
			"buffer":0,
			"byteLength":23112,
			"byteOffset":23112,
			"target":34962
		},
		{
			"buffer":0,
			"byteLength":15408,
			"byteOffset":46224,
			"target":34962
		},
		{
			"buffer":0,
			"byteLength":13092,
			"byteOffset":61632,
			"target":34963
		}
	],
	"buffers":[
		{
			"byteLength":74724,
			"uri":"unti111tled.bin"
		}
	]
}
